<svg xmlns="http://www.w3.org/2000/svg" version="1.0" preserveAspectRatio="xMidYMid meet" viewBox="1055.16 832.07 581.64 620.34">

<g transform="translate(0.000000,2048.000000) scale(0.100000,-0.100000)" fill="#0b0f0b" stroke="none">
<path d="M14953 12145 c-55 -38 -32 -128 43 -172 56 -33 494 -386 649 -523 138 -123 331 -320 374 -383 83 -122 122 -259 87 -312 -15 -23 -22 -25 -100 -25 -76 0 -87 -3 -115 -26 -56 -47 -29 -127 47 -139 20 -3 55 -10 77 -15 51 -11 118 3 168 36 89 58 128 163 108 288 -43 259 -241 482 -891 1006 -167 135 -315 253 -329 262 -32 22 -89 23 -118 3z"/>
<path d="M13480 12073 c-14 -2 -68 -17 -120 -33 -225 -69 -334 -195 -358 -417 -11 -91 2 -558 18 -688 42 -341 186 -714 406 -1050 28 -44 71 -113 93 -153 80 -138 145 -182 199 -132 33 31 36 78 13 243 -33 241 -27 470 24 852 21 160 69 403 106 545 84 317 99 379 110 464 11 86 10 94 -11 151 -29 75 -101 147 -190 189 -57 27 -77 31 -165 32 -55 1 -111 0 -125 -3z"/>
<path d="M14420 11954 c-106 -21 -171 -68 -216 -156 -35 -69 -108 -297 -138 -431 -26 -116 -119 -676 -153 -917 -22 -160 -25 -579 -5 -687 33 -175 129 -209 242 -86 60 65 227 315 321 478 83 146 238 466 282 585 40 110 100 315 128 439 53 239 28 469 -69 631 -35 59 -46 69 -114 104 -68 35 -84 39 -164 41 -49 2 -100 1 -114 -1z"/>
<path d="M12260 11816 c-154 -33 -264 -90 -371 -196 -76 -74 -121 -155 -140 -249 -83 -425 419 -1389 906 -1736 121 -87 238 -143 435 -209 177 -60 224 -67 261 -37 20 16 21 21 10 47 -6 16 -46 56 -88 89 -91 71 -133 123 -218 266 -129 218 -189 367 -237 594 -50 236 -68 434 -73 776 -4 312 -11 392 -46 485 -22 58 -86 131 -140 160 -44 23 -208 29 -299 10z"/>
<path d="M15262 11337 c-125 -67 -275 -272 -377 -517 -15 -36 -40 -94 -56 -129 -41 -87 -123 -365 -144 -486 -56 -319 65 -508 327 -507 172 1 341 89 461 239 221 278 280 462 258 813 -7 128 -14 171 -39 247 -91 283 -271 425 -430 340z"/>
<path d="M11194 10811 c-100 -58 -222 -217 -347 -454 -74 -138 -89 -200 -90 -352 0 -104 3 -130 26 -193 39 -112 83 -177 192 -288 212 -216 492 -345 895 -415 63 -10 144 -26 180 -34 36 -8 139 -19 230 -24 91 -6 237 -17 325 -26 237 -23 396 2 475 75 35 33 37 48 11 77 -15 16 -41 24 -108 32 -299 40 -448 98 -605 239 -67 61 -229 248 -333 387 -108 144 -175 251 -329 529 -177 319 -230 393 -315 448 -63 39 -136 39 -207 -1z"/>
<path d="M15843 10328 c-29 -14 -48 -60 -34 -85 21 -40 42 -48 144 -53 l100 -6 34 -39 c21 -25 42 -67 59 -119 77 -246 93 -594 49 -1070 -29 -310 -28 -320 20 -346 58 -31 105 21 105 117 0 27 9 134 20 238 28 269 35 492 21 665 -31 369 -107 596 -223 664 -68 39 -242 60 -295 34z"/>
<path d="M15430 9607 c-54 -27 -74 -137 -51 -279 4 -27 6 -48 4 -48 -2 0 -43 20 -92 44 -225 114 -445 194 -551 203 -153 12 -250 -32 -250 -113 0 -78 65 -131 345 -280 120 -63 195 -141 322 -329 247 -369 431 -699 623 -1119 50 -108 71 -143 94 -158 59 -37 129 -6 156 70 18 53 25 499 10 667 -40 437 -150 799 -339 1115 -134 223 -188 268 -271 227z"/>
<path d="M10755 9202 c-53 -25 -89 -69 -136 -166 -92 -189 -90 -381 7 -586 71 -150 147 -222 294 -275 64 -23 96 -27 220 -32 227 -8 428 26 735 126 83 27 215 68 294 91 179 53 405 141 579 226 116 57 145 76 213 143 65 62 79 82 79 107 0 54 -35 68 -102 40 -161 -68 -755 -73 -1013 -9 -148 36 -333 100 -588 201 -288 116 -374 143 -467 148 -60 4 -83 1 -115 -14z"/>
<path d="M13950 8993 c-101 -13 -77 -76 120 -308 226 -267 365 -475 513 -771 168 -335 221 -514 287 -963 40 -279 61 -321 160 -321 65 0 135 44 235 148 93 96 133 164 185 320 51 154 61 278 35 442 -62 380 -366 878 -700 1145 -85 68 -227 161 -315 205 -183 91 -346 124 -520 103z"/>
<path d="M13625 8835 c-31 -30 -31 -48 -1 -99 44 -77 134 -372 161 -529 31 -181 34 -418 9 -568 -32 -191 -98 -419 -202 -699 -145 -395 -175 -480 -203 -588 -54 -210 -31 -313 85 -375 34 -18 56 -22 131 -21 103 1 215 34 358 105 288 144 446 328 518 604 22 81 24 111 24 305 0 194 -3 230 -29 365 -36 188 -68 302 -151 541 -117 333 -371 829 -468 910 -84 71 -189 93 -232 49z"/>
<path d="M13290 8725 c-7 -9 -19 -59 -27 -113 -28 -194 -82 -315 -263 -592 -167 -256 -354 -466 -876 -985 -378 -375 -403 -406 -404 -485 0 -66 18 -107 70 -153 138 -124 451 -286 653 -338 63 -16 104 -20 177 -17 84 3 107 8 200 46 142 58 199 99 269 193 73 99 208 354 256 484 20 55 65 168 101 251 66 154 81 205 154 519 61 264 57 382 -25 700 -54 210 -139 413 -202 481 -25 27 -64 31 -83 9z"/>
<path d="M13057 8689 c-25 -17 -69 -57 -97 -89 -28 -32 -74 -75 -103 -94 -29 -20 -72 -50 -96 -68 -50 -36 -277 -149 -426 -213 -236 -100 -434 -160 -770 -230 -391 -82 -515 -121 -589 -186 -96 -85 -89 -191 28 -433 77 -159 119 -216 216 -296 160 -130 276 -157 410 -94 105 50 296 184 425 299 66 59 231 215 367 347 435 421 597 635 697 921 35 100 38 129 15 151 -21 21 -23 21 -77 -15z"/>
</g>
</svg>