<svg xmlns="http://www.w3.org/2000/svg" version="1.0" preserveAspectRatio="xMidYMid meet" viewBox="832 411.44 620.63 581.41">
 
  <g transform="translate(0.000000,2048.000000) scale(0.100000,-0.100000)" fill="hsl(var(--textHue), var(--textSaturation), var(--textLightness))" stroke="none">
    <path d="M10815 16359 c-339 -32 -564 -111 -629 -221 -39 -68 -60 -237 -35 -292 15 -32 60 -51 86 -37 40 21 48 42 53 144 l6 100 39 34 c25 21 67 42 119 59 246 77 594 93 1070 49 310 -29 320 -28 346 20 31 58 -21 105 -117 105 -27 0 -134 9 -238 20 -221 24 -557 33 -700 19z"></path>
    <path d="M9575 16286 c-247 -56 -470 -259 -975 -886 -135 -167 -253 -315 -262 -329 -10 -15 -18 -42 -18 -61 0 -109 126 -118 187 -14 33 56 386 494 523 649 123 138 320 331 383 374 122 83 259 122 312 87 23 -15 25 -22 25 -100 0 -76 3 -87 26 -115 31 -38 72 -41 109 -8 43 37 62 188 32 260 -51 120 -189 178 -342 143z"></path>
    <path d="M12150 16035 c-421 -48 -753 -155 -1065 -344 -200 -121 -238 -163 -219 -238 14 -56 51 -77 142 -81 42 -2 103 1 135 6 31 5 57 7 57 5 0 -2 -20 -43 -44 -92 -114 -225 -194 -445 -203 -551 -12 -153 32 -250 113 -250 78 0 131 65 280 345 63 120 141 195 329 322 369 247 699 431 1119 623 108 50 143 71 158 94 37 59 6 129 -70 156 -55 20 -569 23 -732 5z"></path>
    <path d="M9645 15759 c-74 -10 -212 -51 -272 -81 -59 -29 -181 -159 -216 -229 -56 -112 -36 -187 75 -297 119 -117 239 -188 518 -305 260 -109 397 -143 611 -153 198 -9 254 2 316 59 24 22 55 59 68 81 79 138 28 394 -109 553 -96 110 -295 233 -456 281 -143 43 -430 105 -465 101 -5 -1 -37 -5 -70 -10z m170 -129 c70 -27 97 -94 59 -148 -35 -50 -184 -102 -294 -102 -103 0 -160 39 -160 111 0 61 60 117 158 145 53 15 190 12 237 -6z m445 -116 c177 -53 312 -233 238 -319 -49 -56 -145 -49 -275 19 -85 45 -137 98 -153 157 -13 49 -8 76 20 112 35 45 90 55 170 31z"></path>
    <path d="M9601 15599 c-50 -20 -80 -50 -87 -85 -9 -48 13 -69 69 -68 59 0 153 30 177 56 25 27 26 70 2 91 -21 19 -120 23 -161 6z"></path>
    <path d="M10168 15460 c-26 -16 -23 -76 4 -116 30 -43 123 -104 160 -104 49 0 98 26 98 52 0 37 -34 83 -95 129 -43 32 -66 43 -103 46 -26 2 -55 -1 -64 -7z"></path>
    <path d="M12931 15484 c-319 -54 -768 -306 -1032 -581 -211 -219 -370 -502 -410 -731 -13 -75 -6 -247 12 -268 30 -37 104 5 294 166 267 226 475 365 771 513 335 168 514 221 963 287 279 40 321 61 321 160 0 65 -44 135 -148 235 -96 93 -164 133 -320 185 -152 51 -288 61 -451 34z"></path>
    <path d="M8917 14900 c-90 -16 -182 -49 -247 -88 -59 -36 -69 -46 -105 -117 -39 -76 -40 -79 -40 -184 0 -169 41 -248 157 -307 69 -35 297 -108 431 -138 116 -26 676 -119 917 -153 160 -22 579 -25 687 -5 175 33 209 129 86 242 -65 60 -315 227 -478 321 -146 83 -466 238 -585 282 -108 40 -313 99 -439 128 -97 22 -311 33 -384 19z"></path>
    <path d="M13285 14499 c-235 -32 -583 -129 -856 -238 -260 -103 -674 -331 -735 -404 -71 -84 -93 -189 -49 -232 30 -31 48 -31 99 -1 77 44 372 134 529 161 181 31 418 34 568 9 191 -32 419 -98 699 -202 395 -145 480 -175 588 -203 210 -54 313 -31 375 85 35 65 30 192 -11 314 -105 309 -285 531 -514 636 -135 62 -220 78 -433 82 -104 1 -221 -2 -260 -7z"></path>
    <path d="M8620 13958 c-70 -27 -143 -102 -184 -188 -29 -62 -31 -71 -31 -185 1 -107 4 -131 32 -220 75 -233 197 -339 420 -363 91 -11 558 2 688 18 341 42 714 186 1050 406 44 28 113 71 153 93 138 80 182 145 132 199 -31 33 -78 36 -243 13 -294 -41 -675 -17 -1127 70 -144 28 -201 42 -495 120 -113 30 -271 59 -315 58 -14 0 -50 -9 -80 -21z"></path>
    <path d="M12575 13639 c-229 -21 -558 -117 -730 -213 -81 -46 -105 -68 -105 -100 0 -36 23 -48 128 -63 194 -28 315 -82 592 -263 256 -167 466 -354 985 -876 375 -378 406 -403 485 -404 66 0 107 18 153 70 124 138 286 451 338 653 16 63 20 104 17 177 -3 84 -8 107 -46 200 -58 142 -99 199 -193 269 -99 73 -354 208 -484 256 -55 20 -169 66 -252 101 -115 49 -197 76 -330 109 -364 88 -420 97 -558 84z"></path>
    <path d="M11035 13359 c-11 -6 -47 -44 -80 -86 -71 -91 -123 -133 -266 -218 -218 -129 -367 -189 -594 -237 -236 -50 -434 -68 -776 -73 -401 -5 -493 -22 -583 -109 -62 -61 -79 -98 -84 -189 -12 -208 63 -411 207 -557 75 -77 156 -122 250 -141 425 -83 1389 419 1736 906 87 121 143 238 209 435 59 173 66 221 40 258 -16 24 -28 26 -59 11z"></path>
    <path d="M11776 13134 c-9 -8 -16 -19 -16 -23 0 -20 68 -106 120 -151 32 -28 75 -74 94 -103 20 -29 50 -72 68 -96 36 -50 149 -277 213 -426 100 -236 160 -434 230 -770 82 -391 121 -515 186 -589 85 -96 191 -89 433 28 159 77 216 119 296 216 130 160 157 276 94 410 -50 105 -184 296 -299 425 -59 66 -215 231 -347 367 -421 435 -635 597 -921 697 -100 35 -129 38 -151 15z"></path>
    <path d="M11303 13091 c-16 -15 -24 -41 -32 -108 -40 -299 -98 -448 -239 -605 -61 -67 -248 -229 -387 -333 -144 -108 -251 -175 -529 -329 -319 -177 -393 -230 -448 -315 -39 -63 -39 -136 1 -207 58 -100 217 -222 454 -347 138 -74 200 -89 352 -90 104 0 130 3 193 26 112 39 177 83 288 192 216 212 345 492 415 895 10 63 26 144 34 180 8 36 19 139 24 230 6 91 17 237 26 325 23 237 -2 396 -75 475 -33 35 -48 37 -77 11z"></path>
    <path d="M11602 13028 c-16 -16 -15 -48 2 -90 68 -161 73 -755 9 -1013 -36 -148 -100 -333 -201 -588 -111 -277 -142 -372 -149 -459 -11 -126 32 -187 180 -259 190 -92 382 -90 587 7 150 71 222 147 275 294 23 64 27 96 32 220 8 227 -26 428 -126 735 -27 83 -68 215 -91 294 -53 179 -141 405 -226 579 -57 116 -76 145 -143 213 -62 65 -82 79 -107 79 -16 0 -35 -5 -42 -12z"></path>
  </g>
</svg>